<svg xmlns="http://www.w3.org/2000/svg" xmlns:xlink="http://www.w3.org/1999/xlink" width="2000" zoomAndPan="magnify" viewBox="0 0 1500 1499.999933" height="2000" preserveAspectRatio="xMidYMid meet" version="1.0"><defs><clipPath id="00e941c0ce"><path d="M 27.699219 40.339844 L 1469 40.339844 L 1469 1459.339844 L 27.699219 1459.339844 Z M 27.699219 40.339844 " clip-rule="nonzero"/></clipPath></defs><g clip-path="url(#00e941c0ce)"><path fill="#ffffff" d="M 1009.011719 694.105469 C 1065.191406 652.90625 1102.648438 601.910156 1121.664062 541.117188 L 1122.816406 537.085938 C 1144.710938 466.785156 1138.949219 413.484375 1105.238281 376.894531 C 1071.53125 340.304688 1015.347656 322.152344 936.984375 322.152344 L 384.09375 322.152344 C 699.003906 259.34375 451.800781 40.667969 690.648438 40.667969 L 1051.652344 40.667969 C 1136.644531 40.667969 1208.960938 52.480469 1268.597656 76.105469 C 1327.949219 99.730469 1374.335938 133.152344 1407.46875 176.367188 C 1440.601562 219.585938 1460.195312 271.15625 1466.246094 331.371094 C 1472.292969 391.589844 1463.941406 458.140625 1441.179688 531.035156 L 1440.027344 535.066406 C 1414.382812 617.46875 1359.355469 739.050781 1310.375 801.285156 C 880.511719 1344.375 356.148438 752.59375 27.699219 1459.332031 C 264.527344 446.90625 617.753906 981.640625 1009.011719 694.105469 Z M 1009.011719 694.105469 " fill-opacity="1" fill-rule="nonzero"/></g></svg>